STARTFONT 2.1
FONT -FontForge-Digital7-Book-I-Normal--10-720-10-10-P-43-ISO10646-1
SIZE 72 10 10
FONTBOUNDINGBOX 5 9 0 -1
COMMENT "Generated by fontforge, http://fontforge.sourceforge.net"
COMMENT "Created by Sizenko Alexander. (c) 2008 Style-7. All rights reserved. http://www.styleseven.com"
STARTPROPERTIES 39
FOUNDRY "FontForge"
FAMILY_NAME "Digital7"
WEIGHT_NAME "Book"
SLANT "I"
SETWIDTH_NAME "Normal"
ADD_STYLE_NAME ""
PIXEL_SIZE 10
POINT_SIZE 720
RESOLUTION_X 10
RESOLUTION_Y 10
SPACING "P"
AVERAGE_WIDTH 43
CHARSET_REGISTRY "ISO10646"
CHARSET_ENCODING "1"
FONTNAME_REGISTRY ""
CHARSET_COLLECTIONS "ISO10646-1"
FONT_NAME "Digital-7"
FACE_NAME "Digital-7"
COPYRIGHT "Created by Sizenko Alexander. (c) 2008 Style-7. All rights reserved. http://www.styleseven.com"
FONT_VERSION "1.020 April 07 2011"
FONT_ASCENT 8
FONT_DESCENT 2
UNDERLINE_POSITION -1
UNDERLINE_THICKNESS 1
X_HEIGHT 5
CAP_HEIGHT 5
RAW_ASCENT 800
RAW_DESCENT 200
NORM_SPACE 3
RELATIVE_WEIGHT 40
RELATIVE_SETWIDTH 50
SUPERSCRIPT_X 0
SUPERSCRIPT_Y 4
SUPERSCRIPT_SIZE 5
SUBSCRIPT_X 0
SUBSCRIPT_Y 1
SUBSCRIPT_SIZE 5
AVG_LOWERCASE_WIDTH 47
AVG_UPPERCASE_WIDTH 47
ENDPROPERTIES
CHARS 107
STARTCHAR space
ENCODING 32
SWIDTH 272 0
DWIDTH 3 0
BBX 1 1 0 0
BITMAP
00
ENDCHAR
STARTCHAR exclam
ENCODING 33
SWIDTH 163 0
DWIDTH 2 0
BBX 1 6 0 0
BITMAP
80
80
00
80
80
80
ENDCHAR
STARTCHAR quotedbl
ENCODING 34
SWIDTH 310 0
DWIDTH 3 0
BBX 3 2 0 5
BITMAP
A0
A0
ENDCHAR
STARTCHAR numbersign
ENCODING 35
SWIDTH 490 0
DWIDTH 5 0
BBX 4 4 0 1
BITMAP
50
50
F0
50
ENDCHAR
STARTCHAR dollar
ENCODING 36
SWIDTH 472 0
DWIDTH 5 0
BBX 4 9 0 -1
BITMAP
20
70
A0
A0
F0
30
30
70
20
ENDCHAR
STARTCHAR percent
ENCODING 37
SWIDTH 545 0
DWIDTH 5 0
BBX 5 7 0 0
BITMAP
40
B0
50
00
20
58
68
ENDCHAR
STARTCHAR ampersand
ENCODING 38
SWIDTH 509 0
DWIDTH 5 0
BBX 4 6 0 0
BITMAP
70
50
70
90
90
70
ENDCHAR
STARTCHAR quotesingle
ENCODING 39
SWIDTH 163 0
DWIDTH 2 0
BBX 1 2 0 5
BITMAP
80
80
ENDCHAR
STARTCHAR parenleft
ENCODING 40
SWIDTH 318 0
DWIDTH 3 0
BBX 3 7 0 0
BITMAP
40
80
80
80
80
80
60
ENDCHAR
STARTCHAR parenright
ENCODING 41
SWIDTH 318 0
DWIDTH 3 0
BBX 2 7 1 0
BITMAP
80
40
40
40
40
40
80
ENDCHAR
STARTCHAR asterisk
ENCODING 42
SWIDTH 390 0
DWIDTH 4 0
BBX 3 3 0 2
BITMAP
40
60
C0
ENDCHAR
STARTCHAR plus
ENCODING 43
SWIDTH 400 0
DWIDTH 4 0
BBX 2 2 1 2
BITMAP
C0
80
ENDCHAR
STARTCHAR comma
ENCODING 44
SWIDTH 163 0
DWIDTH 2 0
BBX 1 2 0 -1
BITMAP
80
80
ENDCHAR
STARTCHAR hyphen
ENCODING 45
SWIDTH 400 0
DWIDTH 4 0
BBX 2 1 1 3
BITMAP
C0
ENDCHAR
STARTCHAR period
ENCODING 46
SWIDTH 163 0
DWIDTH 2 0
BBX 1 1 0 0
BITMAP
80
ENDCHAR
STARTCHAR slash
ENCODING 47
SWIDTH 472 0
DWIDTH 5 0
BBX 4 6 0 0
BITMAP
10
20
20
40
40
80
ENDCHAR
STARTCHAR zero
ENCODING 48
SWIDTH 472 0
DWIDTH 5 0
BBX 4 7 0 0
BITMAP
70
90
90
80
90
90
70
ENDCHAR
STARTCHAR one
ENCODING 49
SWIDTH 163 0
DWIDTH 2 0
BBX 1 6 0 0
BITMAP
80
80
00
80
80
80
ENDCHAR
STARTCHAR two
ENCODING 50
SWIDTH 472 0
DWIDTH 5 0
BBX 4 7 0 0
BITMAP
70
10
10
70
80
80
70
ENDCHAR
STARTCHAR three
ENCODING 51
SWIDTH 472 0
DWIDTH 5 0
BBX 3 7 1 0
BITMAP
E0
20
20
E0
20
20
E0
ENDCHAR
STARTCHAR four
ENCODING 52
SWIDTH 472 0
DWIDTH 5 0
BBX 4 6 0 0
BITMAP
90
90
F0
10
10
10
ENDCHAR
STARTCHAR five
ENCODING 53
SWIDTH 472 0
DWIDTH 5 0
BBX 4 7 0 0
BITMAP
70
80
80
F0
10
10
70
ENDCHAR
STARTCHAR six
ENCODING 54
SWIDTH 472 0
DWIDTH 5 0
BBX 4 7 0 0
BITMAP
70
80
80
F0
90
90
70
ENDCHAR
STARTCHAR seven
ENCODING 55
SWIDTH 472 0
DWIDTH 5 0
BBX 4 7 0 0
BITMAP
70
90
90
80
10
10
10
ENDCHAR
STARTCHAR eight
ENCODING 56
SWIDTH 472 0
DWIDTH 5 0
BBX 4 7 0 0
BITMAP
70
90
90
F0
90
90
70
ENDCHAR
STARTCHAR nine
ENCODING 57
SWIDTH 472 0
DWIDTH 5 0
BBX 4 7 0 0
BITMAP
70
90
90
F0
10
10
70
ENDCHAR
STARTCHAR colon
ENCODING 58
SWIDTH 163 0
DWIDTH 2 0
BBX 1 4 0 1
BITMAP
80
00
00
80
ENDCHAR
STARTCHAR semicolon
ENCODING 59
SWIDTH 163 0
DWIDTH 2 0
BBX 1 6 0 -1
BITMAP
80
00
00
00
80
80
ENDCHAR
STARTCHAR less
ENCODING 60
SWIDTH 336 0
DWIDTH 3 0
BBX 2 4 1 1
BITMAP
40
80
80
40
ENDCHAR
STARTCHAR equal
ENCODING 61
SWIDTH 400 0
DWIDTH 4 0
BBX 4 2 0 2
BITMAP
60
F0
ENDCHAR
STARTCHAR greater
ENCODING 62
SWIDTH 336 0
DWIDTH 3 0
BBX 2 3 1 2
BITMAP
80
40
80
ENDCHAR
STARTCHAR question
ENCODING 63
SWIDTH 472 0
DWIDTH 5 0
BBX 4 7 0 0
BITMAP
70
10
10
70
80
80
80
ENDCHAR
STARTCHAR at
ENCODING 64
SWIDTH 472 0
DWIDTH 5 0
BBX 4 7 0 0
BITMAP
70
90
B0
80
B0
B0
60
ENDCHAR
STARTCHAR A
ENCODING 65
SWIDTH 472 0
DWIDTH 5 0
BBX 4 7 0 0
BITMAP
70
90
90
F0
90
90
90
ENDCHAR
STARTCHAR B
ENCODING 66
SWIDTH 472 0
DWIDTH 5 0
BBX 4 7 0 0
BITMAP
E0
90
90
F0
90
90
70
ENDCHAR
STARTCHAR C
ENCODING 67
SWIDTH 436 0
DWIDTH 4 0
BBX 4 7 0 0
BITMAP
70
80
80
80
80
80
70
ENDCHAR
STARTCHAR D
ENCODING 68
SWIDTH 472 0
DWIDTH 5 0
BBX 4 7 0 0
BITMAP
E0
90
90
80
90
90
70
ENDCHAR
STARTCHAR E
ENCODING 69
SWIDTH 436 0
DWIDTH 4 0
BBX 4 7 0 0
BITMAP
70
80
80
F0
80
80
70
ENDCHAR
STARTCHAR F
ENCODING 70
SWIDTH 436 0
DWIDTH 4 0
BBX 4 7 0 0
BITMAP
70
80
80
F0
80
80
80
ENDCHAR
STARTCHAR G
ENCODING 71
SWIDTH 472 0
DWIDTH 5 0
BBX 4 7 0 0
BITMAP
70
80
80
90
90
90
70
ENDCHAR
STARTCHAR H
ENCODING 72
SWIDTH 472 0
DWIDTH 5 0
BBX 4 6 0 0
BITMAP
90
90
F0
90
90
90
ENDCHAR
STARTCHAR I
ENCODING 73
SWIDTH 163 0
DWIDTH 2 0
BBX 1 5 0 1
BITMAP
80
80
00
80
80
ENDCHAR
STARTCHAR J
ENCODING 74
SWIDTH 472 0
DWIDTH 5 0
BBX 4 6 0 0
BITMAP
10
10
00
90
90
70
ENDCHAR
STARTCHAR K
ENCODING 75
SWIDTH 472 0
DWIDTH 5 0
BBX 4 7 0 0
BITMAP
10
B0
E0
F0
90
90
90
ENDCHAR
STARTCHAR L
ENCODING 76
SWIDTH 472 0
DWIDTH 5 0
BBX 4 6 0 0
BITMAP
80
80
80
80
80
F0
ENDCHAR
STARTCHAR M
ENCODING 77
SWIDTH 472 0
DWIDTH 5 0
BBX 4 7 0 0
BITMAP
70
B0
B0
A0
90
90
90
ENDCHAR
STARTCHAR N
ENCODING 78
SWIDTH 472 0
DWIDTH 5 0
BBX 4 6 0 0
BITMAP
D0
B0
80
90
90
90
ENDCHAR
STARTCHAR O
ENCODING 79
SWIDTH 472 0
DWIDTH 5 0
BBX 4 7 0 0
BITMAP
60
90
90
80
90
90
70
ENDCHAR
STARTCHAR P
ENCODING 80
SWIDTH 472 0
DWIDTH 5 0
BBX 4 7 0 0
BITMAP
E0
90
90
F0
80
80
80
ENDCHAR
STARTCHAR Q
ENCODING 81
SWIDTH 481 0
DWIDTH 5 0
BBX 4 7 0 0
BITMAP
70
90
90
80
90
90
70
ENDCHAR
STARTCHAR R
ENCODING 82
SWIDTH 472 0
DWIDTH 5 0
BBX 4 7 0 0
BITMAP
70
90
90
F0
C0
A0
90
ENDCHAR
STARTCHAR S
ENCODING 83
SWIDTH 472 0
DWIDTH 5 0
BBX 4 7 0 0
BITMAP
70
80
80
F0
10
10
70
ENDCHAR
STARTCHAR T
ENCODING 84
SWIDTH 471 0
DWIDTH 5 0
BBX 3 7 1 0
BITMAP
E0
40
40
00
40
40
40
ENDCHAR
STARTCHAR U
ENCODING 85
SWIDTH 472 0
DWIDTH 5 0
BBX 4 6 0 0
BITMAP
90
90
80
90
90
70
ENDCHAR
STARTCHAR V
ENCODING 86
SWIDTH 472 0
DWIDTH 5 0
BBX 4 6 0 0
BITMAP
90
90
80
80
50
20
ENDCHAR
STARTCHAR W
ENCODING 87
SWIDTH 472 0
DWIDTH 5 0
BBX 4 6 0 0
BITMAP
90
90
80
B0
B0
70
ENDCHAR
STARTCHAR X
ENCODING 88
SWIDTH 472 0
DWIDTH 5 0
BBX 4 6 0 0
BITMAP
50
60
20
20
50
90
ENDCHAR
STARTCHAR Y
ENCODING 89
SWIDTH 472 0
DWIDTH 5 0
BBX 4 6 0 0
BITMAP
90
90
F0
10
10
70
ENDCHAR
STARTCHAR Z
ENCODING 90
SWIDTH 472 0
DWIDTH 5 0
BBX 4 7 0 0
BITMAP
60
10
20
20
40
40
B0
ENDCHAR
STARTCHAR bracketleft
ENCODING 91
SWIDTH 281 0
DWIDTH 3 0
BBX 2 7 0 0
BITMAP
40
80
80
80
80
80
40
ENDCHAR
STARTCHAR backslash
ENCODING 92
SWIDTH 470 0
DWIDTH 5 0
BBX 3 6 1 0
BITMAP
80
80
00
40
20
20
ENDCHAR
STARTCHAR bracketright
ENCODING 93
SWIDTH 281 0
DWIDTH 3 0
BBX 1 7 1 0
BITMAP
80
80
80
00
80
80
80
ENDCHAR
STARTCHAR asciicircum
ENCODING 94
SWIDTH 471 0
DWIDTH 5 0
BBX 4 3 0 4
BITMAP
20
70
90
ENDCHAR
STARTCHAR underscore
ENCODING 95
SWIDTH 471 0
DWIDTH 5 0
BBX 3 1 1 0
BITMAP
E0
ENDCHAR
STARTCHAR grave
ENCODING 96
SWIDTH 254 0
DWIDTH 3 0
BBX 2 2 0 5
BITMAP
80
40
ENDCHAR
STARTCHAR a
ENCODING 97
SWIDTH 472 0
DWIDTH 5 0
BBX 4 7 0 0
BITMAP
70
90
90
F0
90
90
90
ENDCHAR
STARTCHAR b
ENCODING 98
SWIDTH 472 0
DWIDTH 5 0
BBX 4 7 0 0
BITMAP
E0
90
90
F0
90
90
70
ENDCHAR
STARTCHAR c
ENCODING 99
SWIDTH 436 0
DWIDTH 4 0
BBX 4 7 0 0
BITMAP
70
80
80
80
80
80
70
ENDCHAR
STARTCHAR d
ENCODING 100
SWIDTH 472 0
DWIDTH 5 0
BBX 4 7 0 0
BITMAP
E0
90
90
80
90
90
70
ENDCHAR
STARTCHAR e
ENCODING 101
SWIDTH 436 0
DWIDTH 4 0
BBX 4 7 0 0
BITMAP
70
80
80
F0
80
80
70
ENDCHAR
STARTCHAR f
ENCODING 102
SWIDTH 436 0
DWIDTH 4 0
BBX 4 7 0 0
BITMAP
70
80
80
F0
80
80
80
ENDCHAR
STARTCHAR g
ENCODING 103
SWIDTH 472 0
DWIDTH 5 0
BBX 4 7 0 0
BITMAP
70
80
80
90
90
90
70
ENDCHAR
STARTCHAR h
ENCODING 104
SWIDTH 472 0
DWIDTH 5 0
BBX 4 6 0 0
BITMAP
90
90
F0
90
90
90
ENDCHAR
STARTCHAR i
ENCODING 105
SWIDTH 163 0
DWIDTH 2 0
BBX 1 5 0 1
BITMAP
80
80
00
80
80
ENDCHAR
STARTCHAR j
ENCODING 106
SWIDTH 472 0
DWIDTH 5 0
BBX 4 6 0 0
BITMAP
10
10
00
90
90
70
ENDCHAR
STARTCHAR k
ENCODING 107
SWIDTH 472 0
DWIDTH 5 0
BBX 4 7 0 0
BITMAP
10
B0
E0
F0
90
90
90
ENDCHAR
STARTCHAR l
ENCODING 108
SWIDTH 472 0
DWIDTH 5 0
BBX 4 6 0 0
BITMAP
80
80
80
80
80
F0
ENDCHAR
STARTCHAR m
ENCODING 109
SWIDTH 472 0
DWIDTH 5 0
BBX 4 7 0 0
BITMAP
70
B0
B0
A0
90
90
90
ENDCHAR
STARTCHAR n
ENCODING 110
SWIDTH 472 0
DWIDTH 5 0
BBX 4 6 0 0
BITMAP
D0
B0
80
90
90
90
ENDCHAR
STARTCHAR o
ENCODING 111
SWIDTH 472 0
DWIDTH 5 0
BBX 4 7 0 0
BITMAP
60
90
90
80
90
90
70
ENDCHAR
STARTCHAR p
ENCODING 112
SWIDTH 472 0
DWIDTH 5 0
BBX 4 7 0 0
BITMAP
E0
90
90
F0
80
80
80
ENDCHAR
STARTCHAR q
ENCODING 113
SWIDTH 481 0
DWIDTH 5 0
BBX 4 7 0 0
BITMAP
70
90
90
80
90
90
70
ENDCHAR
STARTCHAR r
ENCODING 114
SWIDTH 472 0
DWIDTH 5 0
BBX 4 7 0 0
BITMAP
70
90
90
F0
C0
A0
90
ENDCHAR
STARTCHAR s
ENCODING 115
SWIDTH 472 0
DWIDTH 5 0
BBX 4 7 0 0
BITMAP
70
80
80
F0
10
10
70
ENDCHAR
STARTCHAR t
ENCODING 116
SWIDTH 471 0
DWIDTH 5 0
BBX 3 7 1 0
BITMAP
E0
40
40
00
40
40
40
ENDCHAR
STARTCHAR u
ENCODING 117
SWIDTH 472 0
DWIDTH 5 0
BBX 4 6 0 0
BITMAP
90
90
80
90
90
70
ENDCHAR
STARTCHAR v
ENCODING 118
SWIDTH 472 0
DWIDTH 5 0
BBX 4 6 0 0
BITMAP
90
90
80
80
50
20
ENDCHAR
STARTCHAR w
ENCODING 119
SWIDTH 472 0
DWIDTH 5 0
BBX 4 6 0 0
BITMAP
90
90
80
B0
B0
70
ENDCHAR
STARTCHAR x
ENCODING 120
SWIDTH 472 0
DWIDTH 5 0
BBX 4 6 0 0
BITMAP
50
60
20
20
50
90
ENDCHAR
STARTCHAR y
ENCODING 121
SWIDTH 472 0
DWIDTH 5 0
BBX 4 6 0 0
BITMAP
90
90
F0
10
10
70
ENDCHAR
STARTCHAR z
ENCODING 122
SWIDTH 472 0
DWIDTH 5 0
BBX 4 7 0 0
BITMAP
60
10
20
20
40
40
B0
ENDCHAR
STARTCHAR braceleft
ENCODING 123
SWIDTH 390 0
DWIDTH 4 0
BBX 2 7 1 0
BITMAP
40
80
80
80
80
80
40
ENDCHAR
STARTCHAR bar
ENCODING 124
SWIDTH 163 0
DWIDTH 2 0
BBX 1 6 0 0
BITMAP
80
80
80
80
80
80
ENDCHAR
STARTCHAR braceright
ENCODING 125
SWIDTH 390 0
DWIDTH 4 0
BBX 2 7 1 0
BITMAP
80
00
80
40
80
80
80
ENDCHAR
STARTCHAR asciitilde
ENCODING 126
SWIDTH 490 0
DWIDTH 5 0
BBX 3 2 1 3
BITMAP
80
20
ENDCHAR
STARTCHAR copyright
ENCODING 169
SWIDTH 527 0
DWIDTH 5 0
BBX 5 7 0 0
BITMAP
70
88
B8
C8
C8
A8
78
ENDCHAR
STARTCHAR endash
ENCODING 8211
SWIDTH 490 0
DWIDTH 5 0
BBX 3 1 1 3
BITMAP
E0
ENDCHAR
STARTCHAR emdash
ENCODING 8212
SWIDTH 527 0
DWIDTH 5 0
BBX 4 1 1 3
BITMAP
F0
ENDCHAR
STARTCHAR quoteleft
ENCODING 8216
SWIDTH 163 0
DWIDTH 2 0
BBX 1 1 0 5
BITMAP
80
ENDCHAR
STARTCHAR quoteright
ENCODING 8217
SWIDTH 163 0
DWIDTH 2 0
BBX 1 2 0 5
BITMAP
80
80
ENDCHAR
STARTCHAR quotedblleft
ENCODING 8220
SWIDTH 309 0
DWIDTH 3 0
BBX 3 1 0 5
BITMAP
A0
ENDCHAR
STARTCHAR quotedblright
ENCODING 8221
SWIDTH 310 0
DWIDTH 3 0
BBX 3 2 0 5
BITMAP
A0
A0
ENDCHAR
STARTCHAR bullet
ENCODING 8226
SWIDTH 354 0
DWIDTH 4 0
BBX 3 3 0 2
BITMAP
40
E0
60
ENDCHAR
STARTCHAR perthousand
ENCODING 8240
SWIDTH 536 0
DWIDTH 5 0
BBX 5 7 0 0
BITMAP
40
D0
60
40
00
28
78
ENDCHAR
STARTCHAR .notdef
ENCODING -1
SWIDTH 527 0
DWIDTH 5 0
BBX 5 7 0 0
BITMAP
70
88
88
88
88
88
78
ENDCHAR
STARTCHAR NULL
ENCODING -1
SWIDTH 454 0
DWIDTH 5 0
BBX 1 1 0 0
BITMAP
00
ENDCHAR
STARTCHAR nonmarkingreturn
ENCODING -1
SWIDTH 454 0
DWIDTH 5 0
BBX 1 1 0 0
BITMAP
00
ENDCHAR
ENDFONT
